<svg width="23" height="22" viewBox="0 0 23 22" fill="none" xmlns="http://www.w3.org/2000/svg">
<g clip-path="url(#clip0_10137_1104)">
<path d="M16.9453 16.4453C15.3784 17.6398 13.4703 18.3015 11.5003 18.3337C5.08366 18.3337 1.41699 11.0003 1.41699 11.0003C2.55722 8.87542 4.1387 7.01891 6.05533 5.55535M9.57532 3.88702C10.2063 3.73932 10.8523 3.66549 11.5003 3.66702C17.917 3.66702 21.5837 11.0003 21.5837 11.0003C21.0272 12.0413 20.3636 13.0214 19.6037 13.9245M13.4437 12.9437C13.1919 13.2139 12.8883 13.4306 12.551 13.5809C12.2136 13.7312 11.8495 13.812 11.4802 13.8185C11.111 13.825 10.7442 13.7571 10.4018 13.6188C10.0594 13.4805 9.74832 13.2746 9.48718 13.0135C9.22605 12.7524 9.02019 12.4413 8.88188 12.0989C8.74356 11.7564 8.67564 11.3897 8.68216 11.0204C8.68867 10.6512 8.76949 10.287 8.9198 9.94971C9.0701 9.61238 9.28681 9.30878 9.55699 9.05702" stroke="#B68EF3" stroke-width="1.83333" stroke-linecap="round" stroke-linejoin="round"/>
<path d="M1.41699 0.916992L21.5837 21.0837" stroke="#B68EF3" stroke-width="1.83333" stroke-linecap="round" stroke-linejoin="round"/>
</g>
<defs>
<clipPath id="clip0_10137_1104">
<rect width="22" height="22" fill="white" transform="translate(0.5)"/>
</clipPath>
</defs>
</svg>
