<svg width="25" height="24" viewBox="0 0 25 24" fill="none" xmlns="http://www.w3.org/2000/svg">
<path d="M11.2816 0C9.61935 0 8.02517 0.612538 6.84977 1.70286C5.67438 2.79319 5.01405 4.27198 5.01405 5.81393C5.01405 7.35588 5.67438 8.83468 6.84977 9.925C8.02517 11.0153 9.61935 11.6279 11.2816 11.6279C12.9439 11.6279 14.538 11.0153 15.7134 9.925C16.8888 8.83468 17.5492 7.35588 17.5492 5.81393C17.5492 4.27198 16.8888 2.79319 15.7134 1.70286C14.538 0.612538 12.9439 0 11.2816 0ZM11.2816 12.7907C12.0229 12.7922 12.7432 12.8387 13.4427 12.9302C13.6779 12.9607 13.8989 13.0525 14.08 13.195C14.2612 13.3376 14.3949 13.5249 14.4657 13.7352C14.5365 13.9455 14.5414 14.1701 14.4799 14.3829C14.4184 14.5957 14.293 14.7879 14.1183 14.9372C13.0866 15.8138 12.2967 16.9072 11.8147 18.1256C11.3326 19.344 11.1726 20.6519 11.348 21.9395C11.3702 22.1049 11.3537 22.2728 11.2997 22.4319C11.2458 22.5909 11.1556 22.7373 11.0353 22.8611C10.915 22.985 10.7673 23.0834 10.6024 23.1496C10.4375 23.2159 10.2592 23.2485 10.0795 23.2453C7.55993 23.1988 5.20333 22.9941 3.4434 22.4941C2.56343 22.2441 1.73361 21.8929 1.10434 21.3755C0.438729 20.829 0 20.093 0 19.186C0 18.2709 0.448757 17.4151 1.05796 16.6988C1.6772 15.972 2.53335 15.3034 3.53741 14.7337C5.54679 13.5988 8.27945 12.7907 11.2816 12.7907ZM24.0825 13.993C24.67 14.5381 25 15.2774 25 16.0482C25 16.819 24.67 17.5583 24.0825 18.1034L19.798 22.0778C19.5104 22.3445 19.1375 22.5174 18.735 22.5709L15.8406 22.9546C15.6477 22.9803 15.451 22.9639 15.2661 22.9068C15.0812 22.8497 14.9132 22.7534 14.7755 22.6255C14.6378 22.4976 14.5341 22.3417 14.4726 22.1701C14.4112 21.9985 14.3938 21.816 14.4217 21.6371L14.8353 18.9534C14.8926 18.5797 15.0791 18.2333 15.3668 17.9662L19.6513 13.9918C20.239 13.4468 21.0359 13.1407 21.8669 13.1407C22.6979 13.1407 23.4948 13.4468 24.0825 13.9918V13.993Z" fill="white"/>
</svg>
