<svg width="28" height="28" viewBox="0 0 28 28" fill="none" xmlns="http://www.w3.org/2000/svg">
<path d="M24.1275 14.8933C24.4435 14.8933 24.7466 14.7678 24.9701 14.5443C25.1935 14.3209 25.319 14.0178 25.319 13.7018V8.1496C25.3318 7.34581 25.0255 6.56973 24.4672 5.99133C23.9089 5.41294 23.1441 5.07938 22.3403 5.06371H10.7234C10.4074 5.06371 10.1044 5.18924 9.88094 5.41269C9.65749 5.63613 9.53196 5.93918 9.53196 6.25518C9.53196 6.57117 9.65749 6.87423 9.88094 7.09767C10.1044 7.32111 10.4074 7.44664 10.7234 7.44664H22.3403C22.5122 7.46182 22.6711 7.54413 22.7826 7.67574C22.8941 7.80734 22.9493 7.97761 22.9361 8.1496V13.7018C22.9361 14.0178 23.0616 14.3209 23.285 14.5443C23.5085 14.7678 23.8115 14.8933 24.1275 14.8933ZM12.5107 22.3399C12.5897 22.3399 12.6654 22.3713 12.7213 22.4272C12.7771 22.483 12.8085 22.5588 12.8085 22.6378V24.425C12.8085 24.504 12.7771 24.5797 12.7213 24.6356C12.6654 24.6915 12.5897 24.7228 12.5107 24.7228H10.4256C10.1096 24.7228 9.80652 24.8484 9.58307 25.0718C9.35963 25.2953 9.2341 25.5983 9.2341 25.9143C9.2341 26.2303 9.35963 26.5334 9.58307 26.7568C9.80652 26.9802 10.1096 27.1058 10.4256 27.1058H17.2766C17.5926 27.1058 17.8956 26.9802 18.1191 26.7568C18.3425 26.5334 18.468 26.2303 18.468 25.9143C18.468 25.5983 18.3425 25.2953 18.1191 25.0718C17.8956 24.8484 17.5926 24.7228 17.2766 24.7228H15.4893C15.4103 24.7228 15.3346 24.6915 15.2787 24.6356C15.2229 24.5797 15.1915 24.504 15.1915 24.425V22.6378C15.1915 22.5588 15.2229 22.483 15.2787 22.4272C15.3346 22.3713 15.4103 22.3399 15.4893 22.3399H17.8723C18.0303 22.3399 18.1818 22.2772 18.2935 22.1654C18.4053 22.0537 18.468 21.9022 18.468 21.7442V20.2549C18.468 20.0969 18.4053 19.9453 18.2935 19.8336C18.1818 19.7219 18.0303 19.6591 17.8723 19.6591H5.65967C5.50167 19.6591 5.35014 19.5964 5.23842 19.4846C5.12669 19.3729 5.06393 19.2214 5.06393 19.0634V14.2975C5.06393 13.9816 4.9384 13.6785 4.71495 13.4551C4.49151 13.2316 4.18845 13.1061 3.87245 13.1061C3.55645 13.1061 3.2534 13.2316 3.02995 13.4551C2.80651 13.6785 2.68098 13.9816 2.68098 14.2975V19.254C2.66821 20.0578 2.97453 20.8339 3.53283 21.4123C4.09114 21.9907 4.85592 22.3243 5.65967 22.3399H12.5107ZM1.88269 11.3189H5.86222C6.36998 11.3064 6.85236 11.0943 7.20475 10.7285C7.55715 10.3627 7.75117 9.87277 7.74475 9.36489V1.954C7.75117 1.44613 7.55715 0.95619 7.20475 0.590413C6.85236 0.224636 6.36998 0.0125004 5.86222 0H1.88269C1.37492 0.0125004 0.892549 0.224636 0.54015 0.590413C0.18775 0.95619 -0.00626984 1.44613 0.000154606 1.954V9.36489C-0.00626984 9.87277 0.18775 10.3627 0.54015 10.7285C0.892549 11.0943 1.37492 11.3064 1.88269 11.3189ZM1.78737 1.954C1.78737 1.84677 1.84694 1.78719 1.88269 1.78719H5.86222C5.86222 1.78719 5.95754 1.84677 5.95754 1.954V9.36489C5.95754 9.47213 5.95754 9.5317 5.86222 9.5317H1.88269C1.88269 9.5317 1.78737 9.47213 1.78737 9.36489V1.954ZM22.1378 16.6805C21.63 16.693 21.1476 16.9051 20.7952 17.2709C20.4428 17.6367 20.2488 18.1266 20.2553 18.6345V26.2122C20.2614 26.4532 20.315 26.6906 20.413 26.9108C20.511 27.1311 20.6514 27.3299 20.8262 27.4958C21.001 27.6618 21.2068 27.7917 21.4319 27.8781C21.6569 27.9645 21.8968 28.0057 22.1378 27.9994H26.1173C26.3583 28.0057 26.5982 27.9645 26.8232 27.8781C27.0483 27.7917 27.2541 27.6618 27.4289 27.4958C27.6037 27.3299 27.7441 27.1311 27.8421 26.9108C27.9401 26.6906 27.9937 26.4532 27.9998 26.2122V18.6345C28.0063 18.1266 27.8123 17.6367 27.4599 17.2709C27.1075 16.9051 26.6251 16.693 26.1173 16.6805H22.1378ZM26.2126 18.6345V24.7228C26.2126 24.8018 26.1812 24.8776 26.1254 24.9335C26.0695 24.9893 25.9938 25.0207 25.9148 25.0207H22.3403C22.2613 25.0207 22.1856 24.9893 22.1297 24.9335C22.0738 24.8776 22.0425 24.8018 22.0425 24.7228V18.6345C22.0425 18.5272 22.102 18.4677 22.1378 18.4677H26.1173C26.1173 18.4677 26.2126 18.5272 26.2126 18.6345Z" fill="white"/>
</svg>
