<svg width="66" height="48" viewBox="0 0 66 48" fill="none" xmlns="http://www.w3.org/2000/svg">
<path d="M42 30C33.99 30 18 33.99 18 42V48H66V42C66 33.99 50.01 30 42 30ZM15 18V9H9V18H0V24H9V33H15V24H24V18M42 24C45.1826 24 48.2348 22.7357 50.4853 20.4853C52.7357 18.2348 54 15.1826 54 12C54 8.8174 52.7357 5.76515 50.4853 3.51472C48.2348 1.26428 45.1826 0 42 0C38.8174 0 35.7652 1.26428 33.5147 3.51472C31.2643 5.76515 30 8.8174 30 12C30 15.1826 31.2643 18.2348 33.5147 20.4853C35.7652 22.7357 38.8174 24 42 24Z" fill="white"/>
</svg>
