<svg width="19" height="19" viewBox="0 0 19 19" fill="none" xmlns="http://www.w3.org/2000/svg">
<path d="M15.8333 1.58398H6.33333C5.46012 1.58398 4.75 2.29411 4.75 3.16732V12.6673C4.75 13.5405 5.46012 14.2507 6.33333 14.2507H15.8333C16.7065 14.2507 17.4167 13.5405 17.4167 12.6673V3.16732C17.4167 2.29411 16.7065 1.58398 15.8333 1.58398ZM6.33333 12.6673V3.16732H15.8333L15.8349 12.6673H6.33333Z" fill="white"/>
<path d="M3.16536 6.33428H1.58203V15.8343C1.58203 16.7075 2.29216 17.4176 3.16536 17.4176H12.6654V15.8343H3.16536V6.33428ZM10.2373 9.12016L8.87091 7.75374L7.75149 8.87316L10.3434 11.4651L14.8575 6.05007L13.6399 5.03516L10.2373 9.12016Z" fill="white"/>
</svg>
