<svg width="15" height="16" viewBox="0 0 15 16" fill="none" xmlns="http://www.w3.org/2000/svg">
<path fill-rule="evenodd" clip-rule="evenodd" d="M12.8672 0.167302C12.7666 0.0601785 12.6301 0 12.4878 0C12.3454 0 12.2089 0.0601785 12.1083 0.167302L7.06317 5.55001C6.98098 5.63785 6.92786 5.75177 6.91182 5.87457L6.58979 8.30879C6.57827 8.39615 6.58591 8.48516 6.6121 8.56885C6.6383 8.65254 6.68234 8.72863 6.74077 8.79117C6.7992 8.85372 6.87044 8.90101 6.94891 8.92934C7.02738 8.95767 7.11094 8.96628 7.19306 8.95448L9.47946 8.62306C9.59557 8.60646 9.70339 8.54987 9.78646 8.46193L14.8423 3.07922C14.8923 3.02614 14.932 2.96308 14.959 2.89366C14.9861 2.82424 15 2.74982 15 2.67466C15 2.5995 14.9861 2.52508 14.959 2.45566C14.932 2.38624 14.8923 2.32318 14.8423 2.2701L12.8672 0.167302ZM1.34179 1.85754C1.34179 1.62098 1.52212 1.42898 1.74432 1.42898H9.12416C9.30209 1.42898 9.47273 1.35373 9.59855 1.21978C9.72437 1.08583 9.79505 0.90415 9.79505 0.714715C9.79505 0.52528 9.72437 0.343604 9.59855 0.209653C9.47273 0.0757022 9.30209 0.00044939 9.12416 0.00044939H1.74432C0.781457 0.00044939 0 0.832426 0 1.85754V14.1429C0 15.1692 0.781457 16 1.74432 16H11.4052C12.3691 16 13.1495 15.1692 13.1495 14.1429V8.71449C13.1495 8.52506 13.0788 8.34338 12.953 8.20943C12.8272 8.07548 12.6566 8.00023 12.4786 8.00023C12.3007 8.00023 12.13 8.07548 12.0042 8.20943C11.8784 8.34338 11.8077 8.52506 11.8077 8.71449V12.0093H1.34179V1.85754ZM3.22029 3.42892C3.22029 3.03465 3.52085 2.71466 3.89118 2.71466H6.03804C6.21598 2.71466 6.38662 2.78991 6.51244 2.92386C6.63826 3.05781 6.70894 3.23949 6.70894 3.42892C6.70894 3.61836 6.63826 3.80004 6.51244 3.93399C6.38662 4.06794 6.21598 4.14319 6.03804 4.14319H3.89118C3.71325 4.14319 3.54261 4.06794 3.41679 3.93399C3.29097 3.80004 3.22029 3.61836 3.22029 3.42892ZM3.89118 5.57172C3.71325 5.57172 3.54261 5.64698 3.41679 5.78093C3.29097 5.91488 3.22029 6.09655 3.22029 6.28599C3.22029 6.47542 3.29097 6.6571 3.41679 6.79105C3.54261 6.925 3.71325 7.00025 3.89118 7.00025H4.96461C5.14255 7.00025 5.31319 6.925 5.43901 6.79105C5.56483 6.6571 5.63551 6.47542 5.63551 6.28599C5.63551 6.09655 5.56483 5.91488 5.43901 5.78093C5.31319 5.64698 5.14255 5.57172 4.96461 5.57172H3.89118Z" fill="white"/>
</svg>
