<svg width="24" height="38" viewBox="0 0 24 38" fill="none" xmlns="http://www.w3.org/2000/svg">
<path d="M1.72363 1.45801C3.17739 0.14673 5.44659 0.183407 6.82129 1.55664L21.5625 16.2822C21.9068 16.6254 22.1798 17.0336 22.3662 17.4824C22.5526 17.9313 22.6494 18.4125 22.6494 18.8984C22.6494 19.3844 22.5526 19.8656 22.3662 20.3145C22.1799 20.763 21.9064 21.1696 21.5625 21.5127L21.5635 21.5137L6.82129 36.2402C6.12695 36.9338 5.18483 37.3232 4.20312 37.3232C3.22157 37.3231 2.28018 36.9337 1.58594 36.2402C0.891675 35.5467 0.501035 34.606 0.500977 33.625C0.500977 32.6439 0.891585 31.7024 1.58594 31.0088L13.6934 18.9141L1.58594 6.82031C1.24172 6.47712 0.9686 6.06893 0.782227 5.62012C0.595922 5.17133 0.5 4.68998 0.5 4.2041C0.500034 3.71818 0.595855 3.2369 0.782227 2.78809C0.968558 2.3394 1.24184 1.932 1.58594 1.58887L1.72363 1.45801Z" fill="#7C4CC6" stroke="#7C4CC6"/>
</svg>
