<svg width="42" height="36" viewBox="0 0 42 36" fill="none" xmlns="http://www.w3.org/2000/svg">
<rect x="0.5" y="0.5" width="41" height="35" rx="6.5" fill="#3F3F40" stroke="#767676"/>
<path fill-rule="evenodd" clip-rule="evenodd" d="M15.1203 25.2H26.8803C27.1031 25.2 27.3167 25.2948 27.4742 25.4636C27.6318 25.6324 27.7203 25.8613 27.7203 26.1C27.7203 26.3387 27.6318 26.5676 27.4742 26.7364C27.3167 26.9052 27.1031 27 26.8803 27H15.1203C14.8975 27 14.6838 26.9052 14.5263 26.7364C14.3688 26.5676 14.2803 26.3387 14.2803 26.1C14.2803 25.8613 14.3688 25.6324 14.5263 25.4636C14.6838 25.2948 14.8975 25.2 15.1203 25.2ZM14.2803 20.7L22.6803 11.7L25.2003 14.4L16.8003 23.4H14.2803V20.7ZM23.5203 10.8L25.2003 9L27.7203 11.7L26.0394 13.5009L23.5203 10.8Z" fill="white"/>
</svg>
