<svg width="38" height="38" viewBox="0 0 38 38" fill="none" xmlns="http://www.w3.org/2000/svg">
<g clip-path="url(#clip0_1014_1671)">
<path d="M26.125 16.625C26.125 20.5675 22.9425 23.75 19 23.75C15.0575 23.75 11.875 20.5675 11.875 16.625C11.875 12.6825 15.0575 9.5 19 9.5C22.9425 9.5 26.125 12.6825 26.125 16.625Z" fill="#7C4CC6"/>
<path fill-rule="evenodd" clip-rule="evenodd" d="M38 19C38 29.4975 29.4975 38 19 38C8.5025 38 0 29.4975 0 19C0 8.5025 8.5025 0 19 0C29.4975 0 38 8.5025 38 19ZM9.5 32.6562C9.88 32.0245 13.5612 26.125 18.9762 26.125C24.3675 26.125 28.0725 32.0387 28.4525 32.6562C30.6609 31.1291 32.4654 29.0884 33.7106 26.7095C34.9559 24.3307 35.6047 21.685 35.6012 19C35.6012 9.80875 28.1675 2.375 18.9762 2.375C9.785 2.375 2.35125 9.80875 2.35125 19C2.35125 24.6525 5.1775 29.6637 9.5 32.6562Z" fill="#7C4CC6"/>
</g>
<defs>
<clipPath id="clip0_1014_1671">
<rect width="38" height="38" fill="white"/>
</clipPath>
</defs>
</svg>
