<svg width="25" height="24" viewBox="0 0 25 24" fill="none" xmlns="http://www.w3.org/2000/svg">
  <g clip-path="url(#clip0_10261_30035)">
    <path
      d="M4.50894 18.1972C4.14659 17.993 3.85859 17.7154 3.64494 17.3643C3.4313 17.0123 3.32447 16.6179 3.32447 16.1812V10.7078L1.07694 9.46124C0.871767 9.33889 0.719297 9.19395 0.619532 9.02642C0.519767 8.85889 0.470826 8.67347 0.472709 8.47018C0.474591 8.26689 0.524473 8.08147 0.622356 7.91395C0.720238 7.74642 0.872238 7.60148 1.07836 7.47912L10.7066 2.22736C10.8779 2.1323 11.0544 2.06453 11.236 2.02406C11.4177 1.98359 11.604 1.96289 11.7951 1.96194C11.9861 1.961 12.1729 1.98171 12.3555 2.02406C12.5381 2.06642 12.7151 2.13371 12.8864 2.22595L23.7866 8.137C23.9861 8.25465 24.1367 8.40195 24.2384 8.57889C24.3409 8.75677 24.3922 8.94877 24.3922 9.15489V16.7784C24.3922 16.9779 24.3245 17.1455 24.1889 17.281C24.0534 17.4165 23.8859 17.4843 23.6864 17.4843C23.4868 17.4843 23.3188 17.4165 23.1824 17.281C23.0459 17.1455 22.9786 16.9779 22.9805 16.7784V9.26359L20.2656 10.7078V16.1812C20.2656 16.6179 20.1588 17.0123 19.9452 17.3643C19.7315 17.7163 19.444 17.9939 19.0826 18.1972L12.892 21.5488C12.7169 21.6476 12.5381 21.7177 12.3555 21.7591C12.1729 21.8005 11.9861 21.8208 11.7951 21.8198C11.604 21.8189 11.4172 21.7987 11.2346 21.7591C11.052 21.7196 10.8732 21.649 10.6981 21.5474L4.50894 18.1972ZM11.4689 13.5314C11.596 13.6029 11.7089 13.6387 11.8078 13.6387C11.9075 13.6387 12.0209 13.6029 12.148 13.5314L21.4374 8.47018L12.148 3.43724C12.0219 3.36477 11.9089 3.32853 11.8092 3.32853C11.7094 3.32853 11.5965 3.36477 11.4704 3.43724L2.15271 8.47018L11.4689 13.5314ZM11.4421 20.353C11.5692 20.4255 11.6868 20.4617 11.7951 20.4617C11.9033 20.4617 12.0209 20.4255 12.148 20.353L18.4473 16.9492C18.5922 16.8589 18.6958 16.7549 18.7579 16.6372C18.82 16.5196 18.852 16.3699 18.8539 16.1883V11.4843L12.9005 14.7342C12.7245 14.833 12.5456 14.9031 12.364 14.9445C12.1842 14.985 11.9946 15.0052 11.7951 15.0052C11.5955 15.0052 11.4054 14.985 11.2247 14.9445C11.044 14.9041 10.8656 14.8335 10.6896 14.7328L4.73624 11.4857V16.1897C4.73624 16.3347 4.76777 16.4754 4.83083 16.6118C4.89388 16.7474 4.99788 16.8603 5.14283 16.9507L11.4421 20.353Z"
      fill="white" />
  </g>
  <defs>
    <clipPath id="clip0_10261_30035">
      <rect width="24" height="24" fill="white" transform="translate(0.5)" />
    </clipPath>
  </defs>
</svg>
