<svg xmlns="http://www.w3.org/2000/svg" width="24" height="24" viewBox="0 0 24 24" fill="none">
  <g clip-path="url(#clip0_11055_37855)">
    <path d="M4.00894 18.1972C3.64659 17.993 3.35859 17.7154 3.14494 17.3643C2.9313 17.0123 2.82447 16.6179 2.82447 16.1812V10.7078L0.576944 9.46124C0.371767 9.33889 0.219297 9.19395 0.119532 9.02642C0.0197675 8.85889 -0.0291738 8.67347 -0.0272915 8.47018C-0.0254091 8.26689 0.0244732 8.08147 0.122356 7.91395C0.220238 7.74642 0.372238 7.60148 0.578355 7.47912L10.2066 2.22736C10.3779 2.1323 10.5544 2.06453 10.736 2.02406C10.9177 1.98359 11.104 1.96289 11.2951 1.96194C11.4861 1.961 11.6729 1.98171 11.8555 2.02406C12.0381 2.06642 12.2151 2.13371 12.3864 2.22595L23.2866 8.137C23.4861 8.25465 23.6367 8.40195 23.7384 8.57889C23.8409 8.75677 23.8922 8.94877 23.8922 9.15489V16.7784C23.8922 16.9779 23.8245 17.1455 23.6889 17.281C23.5534 17.4165 23.3859 17.4843 23.1864 17.4843C22.9868 17.4843 22.8188 17.4165 22.6824 17.281C22.5459 17.1455 22.4786 16.9779 22.4805 16.7784V9.26359L19.7656 10.7078V16.1812C19.7656 16.6179 19.6588 17.0123 19.4452 17.3643C19.2315 17.7163 18.944 17.9939 18.5826 18.1972L12.392 21.5488C12.2169 21.6476 12.0381 21.7177 11.8555 21.7591C11.6729 21.8005 11.4861 21.8208 11.2951 21.8198C11.104 21.8189 10.9172 21.7987 10.7346 21.7591C10.552 21.7196 10.3732 21.649 10.1981 21.5474L4.00894 18.1972ZM10.9689 13.5314C11.096 13.6029 11.2089 13.6387 11.3078 13.6387C11.4075 13.6387 11.5209 13.6029 11.648 13.5314L20.9374 8.47018L11.648 3.43724C11.5219 3.36477 11.4089 3.32853 11.3092 3.32853C11.2094 3.32853 11.0965 3.36477 10.9704 3.43724L1.65271 8.47018L10.9689 13.5314ZM10.9421 20.353C11.0692 20.4255 11.1868 20.4617 11.2951 20.4617C11.4033 20.4617 11.5209 20.4255 11.648 20.353L17.9473 16.9492C18.0922 16.8589 18.1958 16.7549 18.2579 16.6372C18.32 16.5196 18.352 16.3699 18.3539 16.1883V11.4843L12.4005 14.7342C12.2245 14.833 12.0456 14.9031 11.864 14.9445C11.6842 14.985 11.4946 15.0052 11.2951 15.0052C11.0955 15.0052 10.9054 14.985 10.7247 14.9445C10.544 14.9041 10.3656 14.8335 10.1896 14.7328L4.23624 11.4857V16.1897C4.23624 16.3347 4.26777 16.4754 4.33083 16.6118C4.39388 16.7474 4.49788 16.8603 4.64283 16.9507L10.9421 20.353Z" fill="#C3A1F5"/>
  </g>
  <defs>
    <clipPath id="clip0_11055_37855">
      <rect width="24" height="24" fill="white"/>
    </clipPath>
  </defs>
</svg>
