<svg width="31" height="40" viewBox="0 0 31 40" fill="none" xmlns="http://www.w3.org/2000/svg">
<path d="M0.75 0.75H26C28.3472 0.75 30.25 2.65279 30.25 5V35C30.25 37.3472 28.3472 39.25 26 39.25H0.75V0.75Z" stroke="#D9D9D9" stroke-width="1.5"/>
<g clip-path="url(#clip0_5337_39408)">
<path d="M8.75 15.4922H10.25H22.25" stroke="#878787" stroke-width="1.5" stroke-linecap="round" stroke-linejoin="round"/>
<path d="M20.75 15.5078V26.0078C20.75 26.4056 20.592 26.7872 20.3106 27.0685C20.0293 27.3498 19.6478 27.5078 19.25 27.5078H11.75C11.3522 27.5078 10.9706 27.3498 10.6893 27.0685C10.408 26.7872 10.25 26.4056 10.25 26.0078V15.5078M12.5 15.5078V14.0078C12.5 13.61 12.658 13.2285 12.9393 12.9472C13.2206 12.6658 13.6022 12.5078 14 12.5078H17C17.3978 12.5078 17.7793 12.6658 18.0607 12.9472C18.342 13.2285 18.5 13.61 18.5 14.0078V15.5078" stroke="#878787" stroke-width="1.5" stroke-linecap="round" stroke-linejoin="round"/>
<path d="M14 19.25V23.75" stroke="#878787" stroke-width="1.5" stroke-linecap="round" stroke-linejoin="round"/>
<path d="M17 19.25V23.75" stroke="#878787" stroke-width="1.5" stroke-linecap="round" stroke-linejoin="round"/>
</g>
<defs>
<clipPath id="clip0_5337_39408">
<rect width="18" height="18" fill="white" transform="translate(6.5 11)"/>
</clipPath>
</defs>
</svg>
